# xmcd
#
# Track frame offsets: 
#        150
#        12076
#        25390
#        39136
#        52704
#        67246
#        80154
#        92498
#        106588
#        120533
#        131766
#        151827
#        164892
#        180373
#        198562
#        209599
#        223935
#        236369
#        252953
#        267616
#        288030
#        308912
#
# Disc length: 4265 seconds
#
# Revision: 0
# Processed by: cddbd v1.5.2PL0 Copyright (c) Steve Scherf et al.
# Submitted via: ExactAudioCopyFreeDBPlugin 1.0
#
DISCID=3510a716
DTITLE=Johnny Hodges - BD Jazz [CD2 - The Ellington Years 1937-1950
DTITLE=)
DYEAR=2007
DGENRE=Blues
TTITLE0=Hodge Podge
TTITLE1=Jeep's Blues
TTITLE2=Good Queen Bless
TTITLE3=That's The Blues Old Man
TTITLE4=Junior Hop
TTITLE5=Longhorn Blues
TTITLE6=Swingin' On The Campus
TTITLE7=The Gal From Joe's
TTITLE8=Sentimental Lady
TTITLE9=The Jeep Is Jumpin'
TTITLE10=The Mood To Be Wooed
TTITLE11=Subtle Slough
TTITLE12=Warm Valley
TTITLE13=Never No Lament
TTITLE14=Squatty Roo
TTITLE15=Passion Flower
TTITLE16=Going Out The Back Way
TTITLE17=Things Ain't What They Used To Be
TTITLE18=On The Sunny Side Of The Street
TTITLE19=Night And Day
TTITLE20=Flamingo
TTITLE21=Hop, Skip And Jump
EXTD=
EXTT0=
EXTT1=
EXTT2=
EXTT3=
EXTT4=
EXTT5=
EXTT6=
EXTT7=
EXTT8=
EXTT9=
EXTT10=
EXTT11=
EXTT12=
EXTT13=
EXTT14=
EXTT15=
EXTT16=
EXTT17=
EXTT18=
EXTT19=
EXTT20=
EXTT21=
PLAYORDER=
